<?xml version="1.0" encoding="UTF-8"?>
<svg xmlns="http://www.w3.org/2000/svg" id="Layer_1" viewBox="0 0 3533.01 768.14">
  <defs>
    <style>.cls-1{fill:#f26e11;}.cls-2{fill:#282828;}</style>
  </defs>
  <path class="cls-2" d="m791.36,677.84h-164.82c-13.98-29.56-27.82-58.82-41.92-88.64h-304.24c19.43-45.19,38.13-88.66,57.24-133.1h183.89c-43.22-91.47-85.33-180.59-128.83-272.66-77.24,167.01-152.87,330.56-228.65,494.42H0c2.82-6.5,4.91-11.97,7.5-17.2C106.14,461.2,204.9,261.79,303.3,62.21c5.48-11.12,12.09-17.31,24.63-20.39,41.43-10.17,82.45-21.99,123.65-33.1,5.13-1.39,10.37-2.37,16.74-3.81,107.59,224.13,214.93,447.75,323.03,672.94Z"></path>
  <path class="cls-1" d="m3324.15,675.96c-25.3-38.09-49.83-75.04-75.72-114.03,6.11-1.19,9.98-1.58,13.62-2.71,16.63-5.19,25.98-16.73,28.34-33.84.65-4.74.33-9.62.33-14.43.01-111.38.02-222.77-.01-334.15,0-5.41.22-10.91-.6-16.21-2.82-18.11-15.21-30.44-33.34-33.07-5.91-.86-12.01-.56-18.02-.57-78.85-.03-157.69.07-236.54-.15-8.93-.02-18.25-.41-26.69-2.95-25.6-7.71-42.5-32.27-41.9-58.96.6-26.89,19.74-50.94,46.46-57.58,6.93-1.72,14.27-2.48,21.42-2.49,89.68-.16,179.37-.75,269.04.38,20.71.26,42.09,4.25,61.86,10.58,49.3,15.79,77.83,55.42,78.26,107.39.53,63.81-.08,127.64-.62,191.46-.65,76.45-1.87,152.9-2.6,229.36-.24,25.03-4.51,49.1-14.99,71.88-13.51,29.35-35.14,49.71-68.29,60.11Z"></path>
  <path class="cls-1" d="m3049.85,559.72c-1.09-4.9-1.91-8.87-2.85-12.81-7.34-30.72,6.25-59.83,33.69-72.15,26.93-12.09,57.63-4.04,74.98,21.57,38.82,57.33,77.41,114.84,114.96,173,26.07,40.39,6.95,88.24-38.16,97.43-24.68,5.02-45.23-3.95-60.1-24-11.46-15.46-22.17-31.56-32.05-48.08-5.7-9.53-12.63-12.42-23.38-12.37-86.71.38-173.42.24-260.13.17-9.02,0-18.13.08-27.05-1.06-54.1-6.89-88.91-37.38-102.08-90.47-3.74-15.07-6.27-30.84-6.46-46.33-.74-62.03-.32-124.08-.35-186.12-.01-24.86,9.87-44.64,31.38-57.32,39.78-23.45,89.8,5.33,90.41,52.35.69,52.4.16,104.81.17,157.21,0,4.82-.2,9.65.13,14.45,1.35,19.58,14.96,33.43,34.54,35.28,2.99.28,6.02.23,9.02.23,49.38.01,98.75.03,148.13-.03,4.73,0,9.45-.58,15.19-.96Z"></path>
  <path class="cls-2" d="m1316.19,682.34v-389.4h378.47c-8.14,27.17-16.14,53.85-24.59,82.05h-260.36v71.05h241.03v84.4h-240.95v68.84h285.53c-8.62,28.9-16.59,55.58-24.79,83.07h-354.33Z"></path>
  <path class="cls-2" d="m831.7,375.14c8.62-28.71,16.68-55.56,24.82-82.68,4.4-.3,7.95-.76,11.5-.76,78.85-.02,157.7.02,236.55,0,21.3,0,41.91,3.57,61.57,11.85,66.05,27.83,99.41,103.81,74.54,171.02-17.25,46.63-52.74,71.82-100.23,81.14-13.48,2.64-27.48,3.48-41.26,3.59-51.76.41-103.52.17-155.29.17-5.86,0-11.71,0-19.01,0v122.85h-93v-249.98c29.83-8.08,60.33-16.34,92.41-25.03v67.09c5.09.65,9.06,1.6,13.04,1.6,54.77.1,109.55.15,164.32.02,23.65-.06,37.19-9.1,44.79-29.18,8.27-21.83,3.04-48.61-12-62-9.17-8.17-20.06-9.81-31.88-9.79-83.66.17-167.33.09-250.99.09-5.92,0-11.84,0-19.88,0Z"></path>
  <path class="cls-2" d="m2500.36,280.76c64.19,133.84,128.01,266.93,192.63,401.67h-98.24c-7.82-16.22-15.87-32.92-24.53-50.89h-182c11.7-27.39,22.49-52.67,34.11-79.88h110.09c-26.1-55.41-50.78-107.79-77.03-163.52-46.61,100.73-91.48,197.7-136.27,294.5h-97.66c2.91-6.5,5.13-11.93,7.72-17.17,56.71-114.84,113.56-229.62,170.04-344.57,5.14-10.45,11.36-16.7,23.36-19.39,25.69-5.76,50.95-13.46,77.79-20.75Z"></path>
  <path class="cls-2" d="m1905.06,485.03c-54.25-63.74-107.89-126.77-163.43-192.02,6.59-.59,10.42-1.22,14.25-1.23,26.48-.09,52.98.39,79.44-.27,10.04-.25,16.47,3.08,22.85,10.76,33.85,40.74,68.27,81,102.54,121.39,3.8,4.48,7.9,8.7,12.59,13.83,23.03-27.18,45.16-53.26,67.25-79.38,16.33-19.3,32.62-38.62,48.91-57.95,3.89-4.61,7.53-8.65,14.72-8.57,32.35.36,64.71.16,101.01.16-56.2,66.01-110.14,129.38-164.54,193.27,56.05,65.55,111.42,130.3,168.92,197.53-6.83.38-10.67.77-14.51.77-26.48.05-52.98-.4-79.45.25-9.95.24-16.53-2.81-22.95-10.53-33.49-40.26-67.56-80.03-101.45-119.95-5.44-6.41-10.96-12.77-18.09-21.07-4.26,4.69-8.17,8.75-11.82,13.04-35.85,42.2-71.88,84.27-107.29,126.83-6.75,8.11-13.4,11.98-24.22,11.71-30.03-.74-60.09-.26-94.33-.26,57.7-67.48,113.28-132.47,169.58-198.32Z"></path>
  <path class="cls-1" d="m2842.76,165.61c-.43,33.32-28.48,60.79-61.64,60.36-33.34-.44-60.62-28.41-60.2-61.72.43-33.74,27.61-60.21,61.55-59.93,33.64.27,60.72,27.81,60.29,61.3Z"></path>
  <path class="cls-2" d="m3488.15,0c7.69,0,15.07,1.92,22.13,5.77,7.07,3.85,12.62,9.36,16.66,16.54,4.04,7.18,6.06,14.7,6.06,22.54s-1.98,15.25-5.94,22.34c-3.96,7.09-9.49,12.61-16.57,16.57-7.09,3.96-14.53,5.94-22.34,5.94s-15.25-1.98-22.34-5.94c-7.09-3.96-12.61-9.49-16.57-16.57-3.96-7.09-5.94-14.53-5.94-22.34s2.02-15.36,6.06-22.54c4.04-7.18,9.59-12.7,16.66-16.54,7.07-3.85,14.44-5.77,22.14-5.77Zm.06,8.78c-6.17,0-12.08,1.54-17.74,4.63-5.66,3.08-10.12,7.52-13.38,13.29-3.26,5.78-4.89,11.83-4.89,18.15s1.59,12.28,4.77,17.98c3.18,5.7,7.62,10.15,13.32,13.35,5.7,3.2,11.67,4.8,17.92,4.8s12.27-1.6,17.95-4.8c5.68-3.2,10.12-7.65,13.32-13.35,3.2-5.7,4.8-11.69,4.8-17.98s-1.63-12.37-4.89-18.15c-3.26-5.78-7.73-10.21-13.41-13.29-5.68-3.08-11.6-4.63-17.77-4.63Zm-20.32,60.08V21.26h9.66c9.06,0,14.13.04,15.22.12,3.2.27,5.69.91,7.47,1.9,1.77,1,3.26,2.52,4.45,4.57,1.19,2.05,1.79,4.32,1.79,6.82,0,3.44-1.12,6.37-3.37,8.81-2.25,2.44-5.4,3.95-9.46,4.54,1.44.55,2.56,1.14,3.34,1.79.78.64,1.85,1.86,3.22,3.66.35.47,1.52,2.4,3.51,5.8l5.62,9.6h-11.95l-3.98-7.73c-2.69-5.19-4.92-8.46-6.68-9.81-1.76-1.35-3.98-2.02-6.68-2.02h-2.52v19.56h-9.66Zm9.66-27.05h3.92c5.58,0,9.05-.21,10.39-.64,1.35-.43,2.41-1.18,3.19-2.25.78-1.07,1.17-2.29,1.17-3.66s-.38-2.51-1.14-3.54c-.76-1.03-1.84-1.78-3.25-2.23-1.41-.45-4.86-.67-10.36-.67h-3.92v13Z"></path>
</svg>
